<svg width="12" height="7" viewBox="0 0 12 7" fill="none" xmlns="http://www.w3.org/2000/svg">
<path d="M11.6292 0.393919H1.13201C1.05847 0.386708 0.984511 0.400716 0.917259 0.43459C0.850007 0.468465 0.791738 0.521062 0.748077 0.587304C0.704415 0.653547 0.676837 0.731197 0.668003 0.812759C0.659169 0.894321 0.669378 0.97704 0.697645 1.05293L2.35808 6.46585C2.40646 6.61525 2.49373 6.74523 2.60875 6.83922C2.72377 6.93321 2.86134 6.98696 3.00392 6.9936H9.88557C10.0282 6.98696 10.1659 6.93321 10.281 6.8392C10.3961 6.74519 10.4835 6.61517 10.5319 6.4657L11.9781 0.92316C12.0007 0.862197 12.0088 0.795784 12.0017 0.730313C11.9945 0.664842 11.9724 0.602518 11.9373 0.549337C11.9023 0.496157 11.8555 0.45391 11.8016 0.426665C11.7476 0.399419 11.6882 0.388091 11.6292 0.39377V0.393919Z" fill="black"/>
</svg>
