<svg width="18" height="14" viewBox="0 0 18 14" fill="none" xmlns="http://www.w3.org/2000/svg">
<path d="M16.6117 11.7713H7.42713L3.7512 0H0.889124C0.653314 3.91049e-09 0.427162 0.104249 0.260418 0.289814C0.0936753 0.47538 0 0.72706 0 0.989489C0 1.25192 0.0936753 1.5036 0.260418 1.68916C0.427162 1.87473 0.653314 1.97898 0.889124 1.97898H2.48689L6.16281 13.7502H16.6117C16.7285 13.7502 16.8441 13.7247 16.952 13.6749C17.0598 13.6252 17.1578 13.5523 17.2404 13.4604C17.323 13.3686 17.3885 13.2595 17.4331 13.1394C17.4778 13.0194 17.5008 12.8907 17.5008 12.7608C17.5008 12.6308 17.4778 12.5021 17.4331 12.3821C17.3885 12.262 17.323 12.153 17.2404 12.0611C17.1578 11.9692 17.0598 11.8963 16.952 11.8466C16.8441 11.7969 16.7285 11.7713 16.6117 11.7713V11.7713Z" fill="black"/>
</svg>
